<?xml version="1.0" ?><svg enable-background="new 0 0 24 24" id="Layer_1" version="1.1" viewBox="0 0 24 24" xml:space="preserve" xmlns="http://www.w3.org/2000/svg" xmlns:xlink="http://www.w3.org/1999/xlink"><g><path d="M13.500246,9C11.2944021,9,9.5,10.7944021,9.5,13.000246C9.5,15.2055979,11.2944021,17,13.500246,17   C15.7055979,17,17.5,15.2055979,17.5,13.000246C17.5,10.7944021,15.7055979,9,13.500246,9z M14.5,13c0,0.5512695-0.4487305,1-1,1   s-1-0.4487305-1-1s0.4487305-1,1-1S14.5,12.4487305,14.5,13z" fill="#FFFFFF"/><rect fill="#FFFFFF" height="10" width="3" x="18" y="7"/><circle cx="23" cy="16" fill="#FFFFFF" r="1"/><path d="M3.8891602,7L0,17h3.0834961l0.5356445-1.5h3.2236328L7.378418,17h3.0834961L6.5727539,7H3.8891602z    M5.7714844,12.5H4.6904297l0.5405273-1.5131836L5.7714844,12.5z" fill="#FFFFFF"/></g><g/><g/><g/><g/><g/><g/><g/><g/><g/><g/><g/><g/><g/><g/><g/></svg>